<svg width="345" height="64" viewBox="0 0 345 64" fill="none" xmlns="http://www.w3.org/2000/svg">
<path fill-rule="evenodd" clip-rule="evenodd" d="M-19 65.9365L-13.255 57.4286C-7.51 48.9206 4.29917 31.9048 15.7892 23.3968C27.2792 14.8889 39.0883 14.8889 50.5783 20.5608C62.3875 26.2328 73.8775 37.5767 85.3675 34.7407C97.1767 31.9048 108.667 14.8889 120.157 6.38095C131.966 -2.12698 143.456 -2.12698 154.946 6.38095C166.755 14.8889 178.245 31.9048 190.054 29.0688C201.544 26.2328 213.034 3.54497 224.843 3.54497C236.333 3.54497 247.823 26.2328 259.633 26.2328C271.122 26.2328 282.612 3.54497 294.422 0.708995C305.912 -2.12698 317.721 14.8889 329.211 31.9048C340.701 48.9206 352.51 65.9365 358.255 74.4444L364 82.9524V134H358.255C352.51 134 340.701 134 329.211 134C317.721 134 305.912 134 294.422 134C282.612 134 271.122 134 259.633 134C247.823 134 236.333 134 224.843 134C213.034 134 201.544 134 190.054 134C178.245 134 166.755 134 154.946 134C143.456 134 131.966 134 120.157 134C108.667 134 97.1767 134 85.3675 134C73.8775 134 62.3875 134 50.5783 134C39.0883 134 27.2792 134 15.7892 134C4.29917 134 -7.51 134 -13.255 134H-19V65.9365Z" fill="url(#paint0_linear_1_1832)"/>
<defs>
<linearGradient id="paint0_linear_1_1832" x1="172.5" y1="0" x2="172.5" y2="134" gradientUnits="userSpaceOnUse">
<stop stop-color="#008957"/>
<stop offset="1" stop-color="#101112"/>
</linearGradient>
</defs>
</svg>
