<svg width="18" height="19" viewBox="0 0 18 19" fill="none" xmlns="http://www.w3.org/2000/svg">
<path d="M4.75 10.2916V17.4166C4.75 17.6266 4.66659 17.828 4.51813 17.9764C4.36966 18.1249 4.1683 18.2083 3.95833 18.2083H0.791667C0.581704 18.2083 0.38034 18.1249 0.231874 17.9764C0.0834075 17.828 0 17.6266 0 17.4166V10.2916C0 10.0817 0.0834075 9.8803 0.231874 9.73183C0.38034 9.58337 0.581704 9.49996 0.791667 9.49996H3.95833C4.1683 9.49996 4.36966 9.58337 4.51813 9.73183C4.66659 9.8803 4.75 10.0817 4.75 10.2916ZM10.2917 0.791626H7.125C6.91504 0.791626 6.71367 0.875033 6.56521 1.0235C6.41674 1.17197 6.33333 1.37333 6.33333 1.58329V17.4166C6.33333 17.6266 6.41674 17.828 6.56521 17.9764C6.71367 18.1249 6.91504 18.2083 7.125 18.2083H10.2917C10.5016 18.2083 10.703 18.1249 10.8515 17.9764C10.9999 17.828 11.0833 17.6266 11.0833 17.4166V1.58329C11.0833 1.37333 10.9999 1.17197 10.8515 1.0235C10.703 0.875033 10.5016 0.791626 10.2917 0.791626ZM16.625 4.74996H13.4583C13.2484 4.74996 13.047 4.83337 12.8985 4.98183C12.7501 5.1303 12.6667 5.33166 12.6667 5.54163V17.4166C12.6667 17.6266 12.7501 17.828 12.8985 17.9764C13.047 18.1249 13.2484 18.2083 13.4583 18.2083H16.625C16.835 18.2083 17.0363 18.1249 17.1848 17.9764C17.3333 17.828 17.4167 17.6266 17.4167 17.4166V5.54163C17.4167 5.33166 17.3333 5.1303 17.1848 4.98183C17.0363 4.83337 16.835 4.74996 16.625 4.74996Z" fill="#FAFAFA"/>
</svg>
