<svg width="24" height="24" viewBox="0 0 24 24" fill="none" xmlns="http://www.w3.org/2000/svg">
<g clip-path="url(#clip0_1_928)">
<path d="M7.8 9.6L6 14.4V20.4H7.8V19.2H16.2V20.4H18V14.4L16.248 9.6H7.8ZM9.3 17.1C8.808 17.1 8.4 16.692 8.4 16.2C8.4 15.708 8.808 15.3 9.3 15.3C9.792 15.3 10.2 15.708 10.2 16.2C10.2 16.692 9.792 17.1 9.3 17.1ZM14.7 17.1C14.208 17.1 13.8 16.692 13.8 16.2C13.8 15.708 14.208 15.3 14.7 15.3C15.192 15.3 15.6 15.708 15.6 16.2C15.6 16.692 15.192 17.1 14.7 17.1ZM8.376 13.2L9.048 11.4H14.988L15.648 13.2H8.376Z" fill="#FAFAFA"/>
<path d="M11.244 3.3C10.86 2.088 9.73202 1.2 8.40002 1.2C6.74402 1.2 5.40002 2.544 5.40002 4.2C5.40002 5.856 6.74402 7.2 8.40002 7.2C9.73202 7.2 10.86 6.312 11.244 5.1H15V7.2H16.8V5.1H18V3.3H11.244ZM8.40002 5.4C7.75202 5.4 7.20002 4.848 7.20002 4.2C7.20002 3.552 7.75202 3 8.40002 3C9.04802 3 9.60002 3.552 9.60002 4.2C9.60002 4.848 9.04802 5.4 8.40002 5.4Z" fill="#FAFAFA"/>
</g>
<defs>
<clipPath id="clip0_1_928">
<rect width="24" height="24" fill="white"/>
</clipPath>
</defs>
</svg>
