<svg width="24" height="24" viewBox="0 0 24 24" fill="none" xmlns="http://www.w3.org/2000/svg">
<path d="M11 6H14L17.29 2.7C17.3829 2.60628 17.4935 2.53188 17.6154 2.48111C17.7373 2.43034 17.868 2.40421 18 2.40421C18.132 2.40421 18.2627 2.43034 18.3846 2.48111C18.5064 2.53188 18.617 2.60628 18.71 2.7L21.29 5.29C21.4762 5.47737 21.5808 5.73082 21.5808 5.995C21.5808 6.25919 21.4762 6.51264 21.29 6.7L19 9H11V11C11 11.2652 10.8946 11.5196 10.7071 11.7071C10.5196 11.8946 10.2652 12 9.99998 12C9.73477 12 9.48041 11.8946 9.29288 11.7071C9.10534 11.5196 8.99998 11.2652 8.99998 11V8C8.99998 7.46957 9.2107 6.96086 9.58577 6.58579C9.96084 6.21072 10.4695 6 11 6ZM4.99998 11V15L2.70998 17.29C2.52373 17.4774 2.41919 17.7308 2.41919 17.995C2.41919 18.2592 2.52373 18.5126 2.70998 18.7L5.28998 21.29C5.38295 21.3837 5.49355 21.4581 5.61541 21.5089C5.73726 21.5597 5.86797 21.5858 5.99998 21.5858C6.13199 21.5858 6.2627 21.5597 6.38456 21.5089C6.50642 21.4581 6.61702 21.3837 6.70998 21.29L11 17H15C15.2652 17 15.5196 16.8946 15.7071 16.7071C15.8946 16.5196 16 16.2652 16 16V15H17C17.2652 15 17.5196 14.8946 17.7071 14.7071C17.8946 14.5196 18 14.2652 18 14V13H19C19.2652 13 19.5196 12.8946 19.7071 12.7071C19.8946 12.5196 20 12.2652 20 12V11H13V12C13 12.5304 12.7893 13.0391 12.4142 13.4142C12.0391 13.7893 11.5304 14 11 14H8.99998C8.46955 14 7.96084 13.7893 7.58577 13.4142C7.2107 13.0391 6.99998 12.5304 6.99998 12V9L4.99998 11Z" fill="#FAFAFA"/>
</svg>
