<svg width="18" height="18" viewBox="0 0 18 18" fill="none" xmlns="http://www.w3.org/2000/svg">
<path d="M8.72815 4.67862C8.72815 5.16642 9.125 5.56323 9.61277 5.56323H14.0378C13.9768 5.46873 13.9058 5.38054 13.8252 5.29988L8.99146 0.466072C8.91076 0.38538 8.82246 0.31438 8.72815 0.253418V4.67862Z" fill="#14C886"/>
<path d="M14.2827 6.25539H9.6127C8.74309 6.25539 8.03578 5.54808 8.03578 4.67847V0.00846152C7.98078 0.0030769 7.92501 0 7.86885 0H1.57692C0.707308 0 0 0.707308 0 1.57692V15.805C0 16.6746 0.707308 17.3819 1.57692 17.3819H10.6704C9.73693 16.4946 9.1977 15.2592 9.1977 13.945C9.1977 11.3273 11.3273 9.1977 13.945 9.1977C14.0616 9.1977 14.1769 9.20193 14.2912 9.21039V6.42231C14.2912 6.36616 14.2881 6.31039 14.2827 6.25539ZM8.38193 12.7692H4.055C3.86385 12.7692 3.70885 12.6142 3.70885 12.4231C3.70885 12.2319 3.86385 12.0769 4.055 12.0769H8.38193C8.57309 12.0769 8.72809 12.2319 8.72809 12.4231C8.72809 12.6142 8.57309 12.7692 8.38193 12.7692ZM9.61809 9.06039H4.055C3.86385 9.06039 3.70885 8.90539 3.70885 8.71424C3.70885 8.52309 3.86385 8.36809 4.055 8.36809H9.61809C9.80924 8.36809 9.96424 8.52309 9.96424 8.71424C9.96424 8.90539 9.80924 9.06039 9.61809 9.06039Z" fill="#14C886"/>
<path d="M13.945 9.88989C11.7091 9.88989 9.89001 11.709 9.89001 13.9449C9.89001 15.3065 10.5679 16.5697 11.7032 17.3238C12.3675 17.7661 13.1427 17.9999 13.945 17.9999C16.1809 17.9999 18 16.1808 18 13.9449C18 11.7089 16.1809 9.88989 13.945 9.88989ZM15.7673 12.9718C15.7673 12.9718 13.9061 15.3423 13.9036 15.3455C13.7774 15.5062 13.5306 15.5206 13.3866 15.3765L12.1503 14.1402C12.0151 14.0051 12.0151 13.7859 12.1503 13.6507C12.2855 13.5155 12.5047 13.5155 12.6399 13.6507L13.6001 14.6109L15.2228 12.5443C15.3409 12.3939 15.5585 12.3678 15.7088 12.4858C15.8592 12.6039 15.8854 12.8215 15.7673 12.9718Z" fill="#14C886"/>
</svg>
