<svg width="23" height="21" viewBox="0 0 23 21" fill="none" xmlns="http://www.w3.org/2000/svg">
<path d="M22.0449 8.70045L12.5829 0.462191C12.2398 0.164305 11.8007 0.000197261 11.3463 1.7772e-07C10.8919 -0.000196906 10.4526 0.16353 10.1092 0.461118L0.650331 8.69629C0.360805 8.94588 0.154538 9.27804 0.0592068 9.64822C-0.0361244 10.0184 -0.0159595 10.4089 0.116996 10.7673C0.249951 11.1256 0.489337 11.4348 0.803032 11.6532C1.11673 11.8717 1.48973 11.9889 1.87198 11.9893H3.03077V18.6948C3.03137 19.1925 3.22938 19.6697 3.58135 20.0217C3.93332 20.3737 4.41053 20.5717 4.9083 20.5723H7.59048C8.08825 20.5717 8.56546 20.3737 8.91743 20.0217C9.26941 19.6697 9.46741 19.1925 9.46801 18.6948V16.0126C9.46831 15.75 9.52355 15.4903 9.63019 15.2503C9.73683 15.0103 9.89251 14.7953 10.0872 14.6191C10.2823 14.4414 10.513 14.3072 10.7639 14.2254C11.0148 14.1436 11.2802 14.116 11.5425 14.1445C12.0214 14.2183 12.4566 14.4649 12.7662 14.8376C13.0758 15.2103 13.2383 15.6834 13.2231 16.1676V18.6948C13.2237 19.1925 13.4217 19.6697 13.7737 20.0217C14.1256 20.3737 14.6028 20.5717 15.1006 20.5723H17.7828C18.2806 20.5717 18.7578 20.3737 19.1097 20.0217C19.4617 19.6697 19.6597 19.1925 19.6603 18.6948V11.9893H20.8191C21.2008 11.989 21.5734 11.8721 21.8868 11.6542C22.2003 11.4363 22.4397 11.1279 22.5731 10.7702C22.7064 10.4125 22.7272 10.0226 22.6329 9.65267C22.5385 9.28278 22.3334 8.95054 22.0449 8.70045Z" fill="#FAFAFA"/>
</svg>
