<svg width="22" height="20" viewBox="0 0 22 20" fill="none" xmlns="http://www.w3.org/2000/svg">
<path d="M17.5208 12.2731H16.6249V11.3773C16.6249 10.8825 16.2239 10.4814 15.7291 10.4814C15.2344 10.4814 14.8333 10.8825 14.8333 11.3773V12.2731H13.9375C13.4427 12.2731 13.0416 12.6742 13.0416 13.1689C13.0416 13.6637 13.4427 14.0648 13.9375 14.0648H14.8333V14.9606C14.8333 15.4553 15.2344 15.8564 15.7291 15.8564C16.2239 15.8564 16.6249 15.4553 16.6249 14.9606V14.0648H17.5208C18.0155 14.0648 18.4166 13.6637 18.4166 13.1689C18.4166 12.6742 18.0155 12.2731 17.5208 12.2731Z" fill="#14C886"/>
<path d="M15.7292 6.89795C13.6697 6.89795 11.8389 7.89608 10.6951 9.43392C10.238 9.33777 9.76446 9.28683 9.27922 9.28683C8.76305 9.28683 8.26013 9.34446 7.77632 9.45292C5.49966 9.96312 3.6466 11.6068 2.84292 13.7584C2.56408 14.5049 2.41119 15.3124 2.41119 16.1549C2.41119 16.6496 2.81229 17.0507 3.30702 17.0507H10.8079C11.9573 18.5048 13.736 19.4396 15.7292 19.4396C19.187 19.4396 22 16.6265 22 13.1688C22 9.71097 19.187 6.89795 15.7292 6.89795ZM15.7292 17.6479C14.9175 17.6479 14.1562 17.4298 13.4989 17.0507C12.1564 16.2763 11.25 14.8269 11.25 13.1688C11.25 11.9737 11.7214 10.8874 12.4868 10.0834C13.3032 9.22585 14.4544 8.68961 15.7292 8.68961C18.199 8.68961 20.2083 10.699 20.2083 13.1688C20.2083 15.6386 18.199 17.6479 15.7292 17.6479Z" fill="#14C886"/>
<path d="M1.94818 3.74755C1.94818 5.16093 3.0451 6.32211 4.43226 6.4265C3.99139 5.63208 3.73984 4.71869 3.73984 3.74755C3.73984 2.77641 3.99139 1.86297 4.43226 1.0686C3.0451 1.17294 1.94818 2.33417 1.94818 3.74755Z" fill="#14C886"/>
<path d="M5.58335 8.32469C5.27459 8.26037 4.95734 8.22681 4.63574 8.22681C2.07958 8.22681 0 10.3064 0 12.8626C0 13.3573 0.401093 13.7584 0.89583 13.7584H0.957045C1.64994 11.3559 3.35745 9.3795 5.58335 8.32469Z" fill="#14C886"/>
<path d="M6.22397 1.58144C5.78866 2.19359 5.53156 2.94095 5.53156 3.74761C5.53156 4.55428 5.78866 5.30164 6.22397 5.91379C6.90379 6.8697 8.01951 7.49511 9.27917 7.49511C11.3456 7.49511 13.0267 5.814 13.0267 3.74756C13.0267 1.68111 11.3456 0 9.27917 0C8.01945 0.000119444 6.90379 0.625528 6.22397 1.58144Z" fill="#14C886"/>
</svg>
