<svg width="19" height="18" viewBox="0 0 19 18" fill="none" xmlns="http://www.w3.org/2000/svg">
<path d="M17.6313 6.40005C17.2666 6.34708 16.9185 6.21251 16.613 6.00638C16.3076 5.80025 16.0525 5.52785 15.8669 5.20949C15.6813 4.89112 15.5699 4.53498 15.541 4.16759C15.5121 3.8002 15.5664 3.43102 15.7 3.08755C15.7849 2.86301 15.7974 2.61752 15.7358 2.38551C15.6741 2.1535 15.5414 1.94659 15.3563 1.7938C14.5388 1.10734 13.6083 0.568081 12.6063 0.200054C12.3781 0.115293 12.129 0.104703 11.8944 0.169792C11.6599 0.234881 11.4519 0.372329 11.3 0.562554C11.0714 0.854837 10.7793 1.09123 10.4458 1.25381C10.1122 1.41639 9.74606 1.50088 9.37501 1.50088C9.00397 1.50088 8.63779 1.41639 8.30426 1.25381C7.97072 1.09123 7.67859 0.854837 7.45001 0.562554C7.29815 0.372329 7.09013 0.234881 6.85559 0.169792C6.62104 0.104703 6.37194 0.115293 6.14376 0.200054C5.21855 0.53983 4.35351 1.0251 3.58126 1.63755C3.3866 1.79166 3.24639 2.00403 3.18116 2.24359C3.11593 2.48314 3.12911 2.73728 3.21876 2.9688C3.36298 3.32136 3.42257 3.70281 3.39275 4.08255C3.36292 4.4623 3.24451 4.82977 3.04701 5.15548C2.84952 5.4812 2.57843 5.75609 2.25551 5.95812C1.93258 6.16014 1.5668 6.28368 1.18751 6.3188C0.941268 6.34513 0.709983 6.44983 0.527708 6.61748C0.345433 6.78512 0.221801 7.00686 0.175013 7.25005C0.058637 7.82612 1.35252e-05 8.41235 1.35252e-05 9.00005C-0.000841846 9.49207 0.0388761 9.98332 0.118764 10.4688C0.158523 10.7198 0.279855 10.9507 0.464001 11.1258C0.648147 11.3009 0.88485 11.4105 1.13751 11.4376C1.52513 11.4739 1.8984 11.6026 2.22608 11.8129C2.55375 12.0231 2.8263 12.3088 3.02091 12.646C3.21551 12.9832 3.32652 13.3621 3.34463 13.751C3.36274 14.1399 3.28744 14.5275 3.12501 14.8813C3.01872 15.1115 2.99235 15.3705 3.0501 15.6174C3.10785 15.8642 3.2464 16.0847 3.44376 16.2438C4.25633 16.9178 5.17787 17.4483 6.16876 17.8126C6.29548 17.8564 6.42842 17.8797 6.56251 17.8813C6.74637 17.8809 6.92745 17.8364 7.09057 17.7516C7.25369 17.6668 7.3941 17.5441 7.50001 17.3938C7.72277 17.0693 8.02138 16.804 8.36991 16.621C8.71844 16.438 9.10637 16.3429 9.50001 16.3438C9.88142 16.3443 10.2574 16.4338 10.5982 16.6052C10.9389 16.7767 11.2348 17.0253 11.4625 17.3313C11.614 17.5349 11.8285 17.6826 12.0726 17.7516C12.3168 17.8206 12.577 17.8068 12.8125 17.7126C13.7186 17.3479 14.5621 16.8439 15.3125 16.2188C15.501 16.0629 15.6353 15.8513 15.6959 15.6144C15.7565 15.3774 15.7405 15.1273 15.65 14.9001C15.503 14.552 15.4389 14.1746 15.4628 13.7976C15.4867 13.4206 15.5978 13.0542 15.7875 12.7275C15.9773 12.4008 16.2403 12.1227 16.5559 11.9151C16.8716 11.7075 17.2311 11.5761 17.6063 11.5313C17.8495 11.4977 18.0757 11.3875 18.2521 11.2167C18.4286 11.0459 18.546 10.8233 18.5875 10.5813C18.6879 10.06 18.7423 9.53088 18.75 9.00005C18.7501 8.44015 18.6978 7.88146 18.5938 7.3313C18.5516 7.09462 18.4359 6.87724 18.2631 6.71007C18.0903 6.5429 17.8692 6.43442 17.6313 6.40005ZM12.5 9.00005C12.5 9.61812 12.3167 10.2223 11.9734 10.7362C11.63 11.2501 11.1419 11.6507 10.5709 11.8872C9.99988 12.1237 9.37155 12.1856 8.76536 12.065C8.15917 11.9444 7.60234 11.6468 7.1653 11.2098C6.72827 10.7727 6.43064 10.2159 6.31006 9.60971C6.18948 9.00352 6.25137 8.37519 6.48789 7.80417C6.72441 7.23315 7.12495 6.74509 7.63886 6.40171C8.15276 6.05833 8.75695 5.87505 9.37501 5.87505C10.2038 5.87505 10.9987 6.20429 11.5847 6.79034C12.1708 7.3764 12.5 8.17125 12.5 9.00005Z" fill="#FAFAFA"/>
</svg>
